# Blender v2.79 (sub 0) OBJ File: ''
# www.blender.org
mtllib pyramidtop.mtl
o Cone
v 0.000009 100.000000 -0.000004
v 0.000009 99.999992 -100.000008
v -99.999992 100.000008 -0.000004
v -0.000009 -100.000000 0.000004
v 0.000019 100.000008 99.999992
v 100.000008 99.999992 -0.000004
vt 0.500000 0.666667
vt 0.666667 0.833333
vt 0.333333 0.833333
vt 0.333333 0.500000
vt 0.500000 0.000000
vt 0.666667 0.500000
vt 0.333333 0.500000
vt 0.833333 0.000000
vt 1.000000 0.500000
vt 0.666667 0.500000
vt 0.000000 1.000000
vt 0.166667 0.500000
vt 0.333333 1.000000
vt 0.000000 0.500000
vt 0.166666 0.000000
vn 0.0000 1.0000 -0.0000
vn -0.6667 -0.3333 -0.6667
vn -0.6667 -0.3333 0.6667
vn 0.6667 -0.3333 0.6667
vn 0.6667 -0.3333 -0.6667
usemtl None
s 1
f 1/1/1 2/2/1 3/3/1
f 2/4/2 4/5/2 3/6/2
f 1/1/1 3/3/1 5/7/1
f 3/6/3 4/8/3 5/9/3
f 1/1/1 5/7/1 6/10/1
f 5/11/4 4/12/4 6/13/4
f 1/1/1 6/10/1 2/2/1
f 6/14/5 4/15/5 2/4/5
