# Exported from Wings 3D 1.5.1
mtllib sidebox.mtl
o Cube2
#12 vertices, 10 faces
v -1.3654179e-4 -4.0576809e-2 -2.4780000e-2
v -1.3654179e-4 -4.0576809e-2 2.4780000e-2
v -1.3654179e-4 8.9831915e-3 -2.4780000e-2
v -1.3654179e-4 8.9831915e-3 2.4780000e-2
v 4.9423458e-2 -4.0576809e-2 -2.4780000e-2
v 4.9423458e-2 -4.0576809e-2 2.4780000e-2
v 4.9423458e-2 8.9831915e-3 -2.4780000e-2
v 4.9423458e-2 8.9831915e-3 2.4780000e-2
v 138.21630008 -4.0576809e-2 2.4780000e-2
v 138.21630008 -4.0576809e-2 -2.4780000e-2
v 138.21630008 8.9831915e-3 -2.4780000e-2
v 138.21630008 8.9831915e-3 2.4780000e-2
vn -0.57735027 -0.57735027 -0.57735027
vn -0.57735027 -0.57735027 0.57735027
vn -0.57735027 0.57735027 -0.57735027
vn -0.57735027 0.57735027 0.57735027
vn 0.0000000e+0 -0.70710678 -0.70710678
vn 0.0000000e+0 -0.70710678 0.70710678
vn 0.0000000e+0 0.70710678 -0.70710678
vn 0.0000000e+0 0.70710678 0.70710678
vn 0.57735027 -0.57735027 0.57735027
vn 0.57735027 -0.57735027 -0.57735027
vn 0.57735027 0.57735027 -0.57735027
vn 0.57735027 0.57735027 0.57735027
g Cube2_default
usemtl default
s 1
f 1//1 5//5 6//6 2//2
f 2//2 4//4 3//3 1//1
f 2//2 6//6 8//8 4//4
f 3//3 7//7 5//5 1//1
f 4//4 8//8 7//7 3//3
f 5//5 10//10 9//9 6//6
f 6//6 9//9 12//12 8//8
f 7//7 11//11 10//10 5//5
f 8//8 12//12 11//11 7//7
f 10//10 11//11 12//12 9//9
