# Exported from Wings 3D 1.5.1
mtllib centerbox_m5.mtl
o Cube2
#168 vertices, 166 faces
v -9.97220000 -0.20479587 -2.5000000e-2
v -9.97220000 -0.20479587 2.5000000e-2
v -9.97220000 -0.15479587 -2.5000000e-2
v -9.97220000 -0.15479587 2.5000000e-2
v 9.97220000 -0.20479587 -2.5000000e-2
v 9.97220000 -0.20479587 2.5000000e-2
v 9.97220000 -0.15479587 -2.5000000e-2
v 9.97220000 -0.15479587 2.5000000e-2
v -24.97220000 -0.20479587 -2.5000000e-2
v -24.97220000 -0.20479587 2.5000000e-2
v -24.97220000 -0.15479587 2.5000000e-2
v -24.97220000 -0.15479587 -2.5000000e-2
v 24.97220000 -0.20479587 2.5000000e-2
v 24.97220000 -0.20479587 -2.5000000e-2
v 24.97220000 -0.15479587 -2.5000000e-2
v 24.97220000 -0.15479587 2.5000000e-2
v -39.97220000 -0.20479587 -2.5000000e-2
v -39.97220000 -0.20479587 2.5000000e-2
v -39.97220000 -0.15479587 2.5000000e-2
v -39.97220000 -0.15479587 -2.5000000e-2
v 39.97220000 -0.20479587 2.5000000e-2
v 39.97220000 -0.20479587 -2.5000000e-2
v 39.97220000 -0.15479587 -2.5000000e-2
v 39.97220000 -0.15479587 2.5000000e-2
v -54.97220000 -0.20479587 -2.5000000e-2
v -54.97220000 -0.20479587 2.5000000e-2
v -54.97220000 -0.15479587 2.5000000e-2
v -54.97220000 -0.15479587 -2.5000000e-2
v 54.97220000 -0.20479587 2.5000000e-2
v 54.97220000 -0.20479587 -2.5000000e-2
v 54.97220000 -0.15479587 -2.5000000e-2
v 54.97220000 -0.15479587 2.5000000e-2
v -69.97220000 -0.20479587 -2.5000000e-2
v -69.97220000 -0.20479587 2.5000000e-2
v -69.97220000 -0.15479587 2.5000000e-2
v -69.97220000 -0.15479587 -2.5000000e-2
v 69.97220000 -0.20479587 2.5000000e-2
v 69.97220000 -0.20479587 -2.5000000e-2
v 69.97220000 -0.15479587 -2.5000000e-2
v 69.97220000 -0.15479587 2.5000000e-2
v -84.97220000 4.79520413 -2.5000000e-2
v -84.97220000 4.79520413 2.5000000e-2
v -84.97220000 4.84520413 2.5000000e-2
v -84.97220000 4.84520413 -2.5000000e-2
v 84.97220000 4.79520413 2.5000000e-2
v 84.97220000 4.79520413 -2.5000000e-2
v 84.97220000 4.84520413 -2.5000000e-2
v 84.97220000 4.84520413 2.5000000e-2
v -99.97220000 -0.20479587 -2.5000000e-2
v -99.97220000 -0.20479587 2.5000000e-2
v -99.97220000 -0.15479587 2.5000000e-2
v -99.97220000 -0.15479587 -2.5000000e-2
v 99.97220000 -0.20479587 2.5000000e-2
v 99.97220000 -0.20479587 -2.5000000e-2
v 99.97220000 -0.15479587 -2.5000000e-2
v 99.97220000 -0.15479587 2.5000000e-2
v -114.97220000 -0.20479587 -2.5000000e-2
v -114.97220000 -0.20479587 2.5000000e-2
v -114.97220000 -0.15479587 2.5000000e-2
v -114.97220000 -0.15479587 -2.5000000e-2
v 114.97220000 -0.20479587 2.5000000e-2
v 114.97220000 -0.20479587 -2.5000000e-2
v 114.97220000 -0.15479587 -2.5000000e-2
v 114.97220000 -0.15479587 2.5000000e-2
v -129.97220000 -0.20479587 -2.5000000e-2
v -129.97220000 -0.20479587 2.5000000e-2
v -129.97220000 -0.15479587 2.5000000e-2
v -129.97220000 -0.15479587 -2.5000000e-2
v 129.97220000 -0.20479587 2.5000000e-2
v 129.97220000 -0.20479587 -2.5000000e-2
v 129.97220000 -0.15479587 -2.5000000e-2
v 129.97220000 -0.15479587 2.5000000e-2
v -144.97220000 -0.20479587 -2.5000000e-2
v -144.97220000 -0.20479587 2.5000000e-2
v -144.97220000 -0.15479587 2.5000000e-2
v -144.97220000 -0.15479587 -2.5000000e-2
v 144.97220000 -0.20479587 2.5000000e-2
v 144.97220000 -0.20479587 -2.5000000e-2
v 144.97220000 -0.15479587 -2.5000000e-2
v 144.97220000 -0.15479587 2.5000000e-2
v -159.97220000 -0.20479587 -2.5000000e-2
v -159.97220000 -0.20479587 2.5000000e-2
v -159.97220000 -0.15479587 2.5000000e-2
v -159.97220000 -0.15479587 -2.5000000e-2
v 159.97220000 -0.20479587 2.5000000e-2
v 159.97220000 -0.20479587 -2.5000000e-2
v 159.97220000 -0.15479587 -2.5000000e-2
v 159.97220000 -0.15479587 2.5000000e-2
v -174.97220000 -0.20479587 -2.5000000e-2
v -174.97220000 -0.20479587 2.5000000e-2
v -174.97220000 -0.15479587 2.5000000e-2
v -174.97220000 -0.15479587 -2.5000000e-2
v 174.97220000 -0.20479587 2.5000000e-2
v 174.97220000 -0.20479587 -2.5000000e-2
v 174.97220000 -0.15479587 -2.5000000e-2
v 174.97220000 -0.15479587 2.5000000e-2
v -189.97220000 -0.20479587 -2.5000000e-2
v -189.97220000 -0.20479587 2.5000000e-2
v -189.97220000 -0.15479587 2.5000000e-2
v -189.97220000 -0.15479587 -2.5000000e-2
v 189.97220000 -0.20479587 2.5000000e-2
v 189.97220000 -0.20479587 -2.5000000e-2
v 189.97220000 -0.15479587 -2.5000000e-2
v 189.97220000 -0.15479587 2.5000000e-2
v -204.97220000 -0.20479587 -2.5000000e-2
v -204.97220000 -0.20479587 2.5000000e-2
v -204.97220000 -0.15479587 2.5000000e-2
v -204.97220000 -0.15479587 -2.5000000e-2
v 204.97220000 -0.20479587 2.5000000e-2
v 204.97220000 -0.20479587 -2.5000000e-2
v 204.97220000 -0.15479587 -2.5000000e-2
v 204.97220000 -0.15479587 2.5000000e-2
v -219.97220000 -0.20479587 -2.5000000e-2
v -219.97220000 -0.20479587 2.5000000e-2
v -219.97220000 -0.15479587 2.5000000e-2
v -219.97220000 -0.15479587 -2.5000000e-2
v 219.97220000 -0.20479587 2.5000000e-2
v 219.97220000 -0.20479587 -2.5000000e-2
v 219.97220000 -0.15479587 -2.5000000e-2
v 219.97220000 -0.15479587 2.5000000e-2
v -234.97220000 -0.20479587 -2.5000000e-2
v -234.97220000 -0.20479587 2.5000000e-2
v -234.97220000 -0.15479587 2.5000000e-2
v -234.97220000 -0.15479587 -2.5000000e-2
v 234.97220000 -0.20479587 2.5000000e-2
v 234.97220000 -0.20479587 -2.5000000e-2
v 234.97220000 -0.15479587 -2.5000000e-2
v 234.97220000 -0.15479587 2.5000000e-2
v -249.97220000 -0.20479587 -2.5000000e-2
v -249.97220000 -0.20479587 2.5000000e-2
v -249.97220000 -0.15479587 2.5000000e-2
v -249.97220000 -0.15479587 -2.5000000e-2
v 249.97220000 -0.20479587 2.5000000e-2
v 249.97220000 -0.20479587 -2.5000000e-2
v 249.97220000 -0.15479587 -2.5000000e-2
v 249.97220000 -0.15479587 2.5000000e-2
v -264.97220000 -0.20479587 -2.5000000e-2
v -264.97220000 -0.20479587 2.5000000e-2
v -264.97220000 -0.15479587 2.5000000e-2
v -264.97220000 -0.15479587 -2.5000000e-2
v 264.97220000 -0.20479587 2.5000000e-2
v 264.97220000 -0.20479587 -2.5000000e-2
v 264.97220000 -0.15479587 -2.5000000e-2
v 264.97220000 -0.15479587 2.5000000e-2
v -279.97220000 -0.20479587 -2.5000000e-2
v -279.97220000 -0.20479587 2.5000000e-2
v -279.97220000 -0.15479587 2.5000000e-2
v -279.97220000 -0.15479587 -2.5000000e-2
v 279.97220000 -0.20479587 2.5000000e-2
v 279.97220000 -0.20479587 -2.5000000e-2
v 279.97220000 -0.15479587 -2.5000000e-2
v 279.97220000 -0.15479587 2.5000000e-2
v -1897.30211384 -0.20479587 -2.5000000e-2
v -1897.30211384 -0.20479587 2.5000000e-2
v -1897.30211384 -0.15479587 2.5000000e-2
v -1897.30211384 -0.15479587 -2.5000000e-2
v 1897.30211384 -0.20479587 2.5000000e-2
v 1897.30211384 -0.20479587 -2.5000000e-2
v 1897.30211384 -0.15479587 -2.5000000e-2
v 1897.30211384 -0.15479587 2.5000000e-2
v -1.0677849e+4 -0.20479587 -2.5000000e-2
v -1.0677849e+4 -0.20479587 2.5000000e-2
v -1.0677849e+4 -0.15479587 2.5000000e-2
v -1.0677849e+4 -0.15479587 -2.5000000e-2
v 1.0677849e+4 -0.20479587 2.5000000e-2
v 1.0677849e+4 -0.20479587 -2.5000000e-2
v 1.0677849e+4 -0.15479587 -2.5000000e-2
v 1.0677849e+4 -0.15479587 2.5000000e-2
vn 0.0000000e+0 -0.70710678 -0.70710678
vn 0.0000000e+0 -0.70710678 0.70710678
vn 0.0000000e+0 0.70710678 -0.70710678
vn 0.0000000e+0 0.70710678 0.70710678
vn 0.0000000e+0 -0.70710678 -0.70710678
vn 0.0000000e+0 -0.70710678 0.70710678
vn 0.0000000e+0 0.70710678 -0.70710678
vn 0.0000000e+0 0.70710678 0.70710678
vn 0.0000000e+0 -0.70710678 -0.70710678
vn 0.0000000e+0 -0.70710678 0.70710678
vn 0.0000000e+0 0.70710678 0.70710678
vn 0.0000000e+0 0.70710678 -0.70710678
vn 0.0000000e+0 -0.70710678 0.70710678
vn 0.0000000e+0 -0.70710678 -0.70710678
vn 0.0000000e+0 0.70710678 -0.70710678
vn 0.0000000e+0 0.70710678 0.70710678
vn 0.0000000e+0 -0.70710678 -0.70710678
vn 0.0000000e+0 -0.70710678 0.70710678
vn 0.0000000e+0 0.70710678 0.70710678
vn 0.0000000e+0 0.70710678 -0.70710678
vn 0.0000000e+0 -0.70710678 0.70710678
vn 0.0000000e+0 -0.70710678 -0.70710678
vn 0.0000000e+0 0.70710678 -0.70710678
vn 0.0000000e+0 0.70710678 0.70710678
vn 0.0000000e+0 -0.70710678 -0.70710678
vn 0.0000000e+0 -0.70710678 0.70710678
vn 0.0000000e+0 0.70710678 0.70710678
vn 0.0000000e+0 0.70710678 -0.70710678
vn 0.0000000e+0 -0.70710678 0.70710678
vn 0.0000000e+0 -0.70710678 -0.70710678
vn 0.0000000e+0 0.70710678 -0.70710678
vn 0.0000000e+0 0.70710678 0.70710678
vn -0.11252755 -0.69342599 -0.71168669
vn -0.11252755 -0.69342599 0.71168669
vn 0.11252755 0.69342599 0.71168669
vn 0.11252755 0.69342599 -0.71168669
vn 0.11252755 -0.69342599 0.71168669
vn 0.11252755 -0.69342599 -0.71168669
vn -0.11252755 0.69342599 -0.71168669
vn -0.11252755 0.69342599 0.71168669
vn 0.0000000e+0 -0.68824720 -0.72547625
vn 0.0000000e+0 -0.68824720 0.72547625
vn 0.0000000e+0 0.68824720 0.72547625
vn 0.0000000e+0 0.68824720 -0.72547625
vn 0.0000000e+0 -0.68824720 0.72547625
vn 0.0000000e+0 -0.68824720 -0.72547625
vn 0.0000000e+0 0.68824720 -0.72547625
vn 0.0000000e+0 0.68824720 0.72547625
vn 0.11252755 -0.69342599 -0.71168669
vn 0.11252755 -0.69342599 0.71168669
vn -0.11252755 0.69342599 0.71168669
vn -0.11252755 0.69342599 -0.71168669
vn -0.11252755 -0.69342599 0.71168669
vn -0.11252755 -0.69342599 -0.71168669
vn 0.11252755 0.69342599 -0.71168669
vn 0.11252755 0.69342599 0.71168669
vn 0.0000000e+0 -0.70710678 -0.70710678
vn 0.0000000e+0 -0.70710678 0.70710678
vn 0.0000000e+0 0.70710678 0.70710678
vn 0.0000000e+0 0.70710678 -0.70710678
vn 0.0000000e+0 -0.70710678 0.70710678
vn 0.0000000e+0 -0.70710678 -0.70710678
vn 0.0000000e+0 0.70710678 -0.70710678
vn 0.0000000e+0 0.70710678 0.70710678
vn 0.0000000e+0 -0.70710678 -0.70710678
vn 0.0000000e+0 -0.70710678 0.70710678
vn 0.0000000e+0 0.70710678 0.70710678
vn 0.0000000e+0 0.70710678 -0.70710678
vn 0.0000000e+0 -0.70710678 0.70710678
vn 0.0000000e+0 -0.70710678 -0.70710678
vn 0.0000000e+0 0.70710678 -0.70710678
vn 0.0000000e+0 0.70710678 0.70710678
vn 0.0000000e+0 -0.70710678 -0.70710678
vn 0.0000000e+0 -0.70710678 0.70710678
vn 0.0000000e+0 0.70710678 0.70710678
vn 0.0000000e+0 0.70710678 -0.70710678
vn 0.0000000e+0 -0.70710678 0.70710678
vn 0.0000000e+0 -0.70710678 -0.70710678
vn 0.0000000e+0 0.70710678 -0.70710678
vn 0.0000000e+0 0.70710678 0.70710678
vn 0.0000000e+0 -0.70710678 -0.70710678
vn 0.0000000e+0 -0.70710678 0.70710678
vn 0.0000000e+0 0.70710678 0.70710678
vn 0.0000000e+0 0.70710678 -0.70710678
vn 0.0000000e+0 -0.70710678 0.70710678
vn 0.0000000e+0 -0.70710678 -0.70710678
vn 0.0000000e+0 0.70710678 -0.70710678
vn 0.0000000e+0 0.70710678 0.70710678
vn 0.0000000e+0 -0.70710678 -0.70710678
vn 0.0000000e+0 -0.70710678 0.70710678
vn 0.0000000e+0 0.70710678 0.70710678
vn 0.0000000e+0 0.70710678 -0.70710678
vn 0.0000000e+0 -0.70710678 0.70710678
vn 0.0000000e+0 -0.70710678 -0.70710678
vn 0.0000000e+0 0.70710678 -0.70710678
vn 0.0000000e+0 0.70710678 0.70710678
vn 0.0000000e+0 -0.70710678 -0.70710678
vn 0.0000000e+0 -0.70710678 0.70710678
vn 0.0000000e+0 0.70710678 0.70710678
vn 0.0000000e+0 0.70710678 -0.70710678
vn 0.0000000e+0 -0.70710678 0.70710678
vn 0.0000000e+0 -0.70710678 -0.70710678
vn 0.0000000e+0 0.70710678 -0.70710678
vn 0.0000000e+0 0.70710678 0.70710678
vn 0.0000000e+0 -0.70710678 -0.70710678
vn 0.0000000e+0 -0.70710678 0.70710678
vn 0.0000000e+0 0.70710678 0.70710678
vn 0.0000000e+0 0.70710678 -0.70710678
vn 0.0000000e+0 -0.70710678 0.70710678
vn 0.0000000e+0 -0.70710678 -0.70710678
vn 0.0000000e+0 0.70710678 -0.70710678
vn 0.0000000e+0 0.70710678 0.70710678
vn 0.0000000e+0 -0.70710678 -0.70710678
vn 0.0000000e+0 -0.70710678 0.70710678
vn 0.0000000e+0 0.70710678 0.70710678
vn 0.0000000e+0 0.70710678 -0.70710678
vn 0.0000000e+0 -0.70710678 0.70710678
vn 0.0000000e+0 -0.70710678 -0.70710678
vn 0.0000000e+0 0.70710678 -0.70710678
vn 0.0000000e+0 0.70710678 0.70710678
vn 0.0000000e+0 -0.70710678 -0.70710678
vn 0.0000000e+0 -0.70710678 0.70710678
vn 0.0000000e+0 0.70710678 0.70710678
vn 0.0000000e+0 0.70710678 -0.70710678
vn 0.0000000e+0 -0.70710678 0.70710678
vn 0.0000000e+0 -0.70710678 -0.70710678
vn 0.0000000e+0 0.70710678 -0.70710678
vn 0.0000000e+0 0.70710678 0.70710678
vn 0.0000000e+0 -0.70710678 -0.70710678
vn 0.0000000e+0 -0.70710678 0.70710678
vn 0.0000000e+0 0.70710678 0.70710678
vn 0.0000000e+0 0.70710678 -0.70710678
vn 0.0000000e+0 -0.70710678 0.70710678
vn 0.0000000e+0 -0.70710678 -0.70710678
vn 0.0000000e+0 0.70710678 -0.70710678
vn 0.0000000e+0 0.70710678 0.70710678
vn 0.0000000e+0 -0.70710678 -0.70710678
vn 0.0000000e+0 -0.70710678 0.70710678
vn 0.0000000e+0 0.70710678 0.70710678
vn 0.0000000e+0 0.70710678 -0.70710678
vn 0.0000000e+0 -0.70710678 0.70710678
vn 0.0000000e+0 -0.70710678 -0.70710678
vn 0.0000000e+0 0.70710678 -0.70710678
vn 0.0000000e+0 0.70710678 0.70710678
vn 0.0000000e+0 -0.70710678 -0.70710678
vn 0.0000000e+0 -0.70710678 0.70710678
vn 0.0000000e+0 0.70710678 0.70710678
vn 0.0000000e+0 0.70710678 -0.70710678
vn 0.0000000e+0 -0.70710678 0.70710678
vn 0.0000000e+0 -0.70710678 -0.70710678
vn 0.0000000e+0 0.70710678 -0.70710678
vn 0.0000000e+0 0.70710678 0.70710678
vn 0.0000000e+0 -0.70710678 -0.70710678
vn 0.0000000e+0 -0.70710678 0.70710678
vn 0.0000000e+0 0.70710678 0.70710678
vn 0.0000000e+0 0.70710678 -0.70710678
vn 0.0000000e+0 -0.70710678 0.70710678
vn 0.0000000e+0 -0.70710678 -0.70710678
vn 0.0000000e+0 0.70710678 -0.70710678
vn 0.0000000e+0 0.70710678 0.70710678
vn -0.57735027 -0.57735027 -0.57735027
vn -0.57735027 -0.57735027 0.57735027
vn -0.57735027 0.57735027 0.57735027
vn -0.57735027 0.57735027 -0.57735027
vn 0.57735027 -0.57735027 0.57735027
vn 0.57735027 -0.57735027 -0.57735027
vn 0.57735027 0.57735027 -0.57735027
vn 0.57735027 0.57735027 0.57735027
g Cube2_default
usemtl default
s 1
f 1//1 5//5 6//6 2//2
f 1//1 9//9 12//12 3//3
f 2//2 6//6 8//8 4//4
f 2//2 10//10 9//9 1//1
f 3//3 7//7 5//5 1//1
f 3//3 12//12 11//11 4//4
f 4//4 8//8 7//7 3//3
f 4//4 11//11 10//10 2//2
f 5//5 14//14 13//13 6//6
f 6//6 13//13 16//16 8//8
f 7//7 15//15 14//14 5//5
f 8//8 16//16 15//15 7//7
f 9//9 17//17 20//20 12//12
f 10//10 18//18 17//17 9//9
f 11//11 19//19 18//18 10//10
f 12//12 20//20 19//19 11//11
f 13//13 21//21 24//24 16//16
f 14//14 22//22 21//21 13//13
f 15//15 23//23 22//22 14//14
f 16//16 24//24 23//23 15//15
f 17//17 25//25 28//28 20//20
f 18//18 26//26 25//25 17//17
f 19//19 27//27 26//26 18//18
f 20//20 28//28 27//27 19//19
f 21//21 29//29 32//32 24//24
f 22//22 30//30 29//29 21//21
f 23//23 31//31 30//30 22//22
f 24//24 32//32 31//31 23//23
f 25//25 33//33 36//36 28//28
f 26//26 34//34 33//33 25//25
f 27//27 35//35 34//34 26//26
f 28//28 36//36 35//35 27//27
f 29//29 37//37 40//40 32//32
f 30//30 38//38 37//37 29//29
f 31//31 39//39 38//38 30//30
f 32//32 40//40 39//39 31//31
f 33//33 41//41 44//44 36//36
f 34//34 42//42 41//41 33//33
f 35//35 43//43 42//42 34//34
f 36//36 44//44 43//43 35//35
f 37//37 45//45 48//48 40//40
f 38//38 46//46 45//45 37//37
f 39//39 47//47 46//46 38//38
f 40//40 48//48 47//47 39//39
f 41//41 49//49 52//52 44//44
f 42//42 50//50 49//49 41//41
f 43//43 51//51 50//50 42//42
f 44//44 52//52 51//51 43//43
f 45//45 53//53 56//56 48//48
f 46//46 54//54 53//53 45//45
f 47//47 55//55 54//54 46//46
f 48//48 56//56 55//55 47//47
f 49//49 57//57 60//60 52//52
f 50//50 58//58 57//57 49//49
f 51//51 59//59 58//58 50//50
f 52//52 60//60 59//59 51//51
f 53//53 61//61 64//64 56//56
f 54//54 62//62 61//61 53//53
f 55//55 63//63 62//62 54//54
f 56//56 64//64 63//63 55//55
f 57//57 65//65 68//68 60//60
f 58//58 66//66 65//65 57//57
f 59//59 67//67 66//66 58//58
f 60//60 68//68 67//67 59//59
f 61//61 69//69 72//72 64//64
f 62//62 70//70 69//69 61//61
f 63//63 71//71 70//70 62//62
f 64//64 72//72 71//71 63//63
f 65//65 73//73 76//76 68//68
f 66//66 74//74 73//73 65//65
f 67//67 75//75 74//74 66//66
f 68//68 76//76 75//75 67//67
f 69//69 77//77 80//80 72//72
f 70//70 78//78 77//77 69//69
f 71//71 79//79 78//78 70//70
f 72//72 80//80 79//79 71//71
f 73//73 81//81 84//84 76//76
f 74//74 82//82 81//81 73//73
f 75//75 83//83 82//82 74//74
f 76//76 84//84 83//83 75//75
f 77//77 85//85 88//88 80//80
f 78//78 86//86 85//85 77//77
f 79//79 87//87 86//86 78//78
f 80//80 88//88 87//87 79//79
f 81//81 89//89 92//92 84//84
f 82//82 90//90 89//89 81//81
f 83//83 91//91 90//90 82//82
f 84//84 92//92 91//91 83//83
f 85//85 93//93 96//96 88//88
f 86//86 94//94 93//93 85//85
f 87//87 95//95 94//94 86//86
f 88//88 96//96 95//95 87//87
f 89//89 97//97 100//100 92//92
f 90//90 98//98 97//97 89//89
f 91//91 99//99 98//98 90//90
f 92//92 100//100 99//99 91//91
f 93//93 101//101 104//104 96//96
f 94//94 102//102 101//101 93//93
f 95//95 103//103 102//102 94//94
f 96//96 104//104 103//103 95//95
f 97//97 105//105 108//108 100//100
f 98//98 106//106 105//105 97//97
f 99//99 107//107 106//106 98//98
f 100//100 108//108 107//107 99//99
f 101//101 109//109 112//112 104//104
f 102//102 110//110 109//109 101//101
f 103//103 111//111 110//110 102//102
f 104//104 112//112 111//111 103//103
f 105//105 113//113 116//116 108//108
f 106//106 114//114 113//113 105//105
f 107//107 115//115 114//114 106//106
f 108//108 116//116 115//115 107//107
f 109//109 117//117 120//120 112//112
f 110//110 118//118 117//117 109//109
f 111//111 119//119 118//118 110//110
f 112//112 120//120 119//119 111//111
f 113//113 121//121 124//124 116//116
f 114//114 122//122 121//121 113//113
f 115//115 123//123 122//122 114//114
f 116//116 124//124 123//123 115//115
f 117//117 125//125 128//128 120//120
f 118//118 126//126 125//125 117//117
f 119//119 127//127 126//126 118//118
f 120//120 128//128 127//127 119//119
f 121//121 129//129 132//132 124//124
f 122//122 130//130 129//129 121//121
f 123//123 131//131 130//130 122//122
f 124//124 132//132 131//131 123//123
f 125//125 133//133 136//136 128//128
f 126//126 134//134 133//133 125//125
f 127//127 135//135 134//134 126//126
f 128//128 136//136 135//135 127//127
f 129//129 137//137 140//140 132//132
f 130//130 138//138 137//137 129//129
f 131//131 139//139 138//138 130//130
f 132//132 140//140 139//139 131//131
f 133//133 141//141 144//144 136//136
f 134//134 142//142 141//141 133//133
f 135//135 143//143 142//142 134//134
f 136//136 144//144 143//143 135//135
f 137//137 145//145 148//148 140//140
f 138//138 146//146 145//145 137//137
f 139//139 147//147 146//146 138//138
f 140//140 148//148 147//147 139//139
f 141//141 149//149 152//152 144//144
f 142//142 150//150 149//149 141//141
f 143//143 151//151 150//150 142//142
f 144//144 152//152 151//151 143//143
f 145//145 153//153 156//156 148//148
f 146//146 154//154 153//153 145//145
f 147//147 155//155 154//154 146//146
f 148//148 156//156 155//155 147//147
f 149//149 157//157 160//160 152//152
f 150//150 158//158 157//157 149//149
f 151//151 159//159 158//158 150//150
f 152//152 160//160 159//159 151//151
f 153//153 161//161 164//164 156//156
f 154//154 162//162 161//161 153//153
f 155//155 163//163 162//162 154//154
f 156//156 164//164 163//163 155//155
f 157//157 165//165 168//168 160//160
f 158//158 166//166 165//165 157//157
f 159//159 167//167 166//166 158//158
f 160//160 168//168 167//167 159//159
f 162//162 163//163 164//164 161//161
f 166//166 167//167 168//168 165//165
